# xmcd
#
# Track frame offsets:
#	150
#	14957
#	26892
#	43325
#	54232
#	67197
#	82750
#	96140
#	112062
#	125450
#	141042
#	153072
#	168982
#
# Disc length: 2593 seconds
#
# Revision: 1
# Processed by: cddbd v1.5.1PL2 Copyright (c) Steve Scherf et al.
# Submitted via: audiograbber 1.83.01
#
DISCID=b00a1f0d
DTITLE=andy owens project - real music
DYEAR=1993
DGENRE=Bluegrass
TTITLE0=bill and rose
TTITLE1=blue letter
TTITLE2=atwater kent
TTITLE3=cat and mouse
TTITLE4=hard to see
TTITLE5=devil john of the cumberlands
TTITLE6=able and willing
TTITLE7=John murrell
TTITLE8=jalapeno flashback
TTITLE9=hazard
TTITLE10=see to believe
TTITLE11=I 'm coming home
TTITLE12=the do you feel
EXTD=
EXTT0=
EXTT1=
EXTT2=
EXTT3=
EXTT4=
EXTT5=
EXTT6=
EXTT7=
EXTT8=
EXTT9=
EXTT10=
EXTT11=
EXTT12=
PLAYORDER=
